<svg xmlns="http://www.w3.org/2000/svg" xmlns:xlink="http://www.w3.org/1999/xlink" contentStyleType="text/css" height="898px" preserveAspectRatio="none" style="width:1824px;height:898px;background:#FFFFFF;" version="1.1" viewBox="0 0 1824 898" width="1824px" zoomAndPan="magnify"><defs/><g><!--cluster Business Layer--><g id="cluster_Business Layer"><path d="M586.5,6 L706.165,6 A3.75,3.75 0 0 1 708.665,8.5 L715.665,28.2969 L1484.5,28.2969 A2.5,2.5 0 0 1 1487,30.7969 L1487,499.17 A2.5,2.5 0 0 1 1484.5,501.67 L586.5,501.67 A2.5,2.5 0 0 1 584,499.17 L584,8.5 A2.5,2.5 0 0 1 586.5,6 " fill="none" style="stroke:#000000;stroke-width:1.5;"/><line style="stroke:#000000;stroke-width:1.5;" x1="584" x2="715.665" y1="28.2969" y2="28.2969"/><text fill="#000000" font-family="sans-serif" font-size="14" font-weight="bold" lengthAdjust="spacing" textLength="118.665" x="588" y="20.9951">Business Layer</text></g><!--cluster Data Access Layer--><g id="cluster_Data Access Layer"><path d="M805.5,583.27 L950.9434,583.27 A3.75,3.75 0 0 1 953.4434,585.77 L960.4434,605.5669 L1699.5,605.5669 A2.5,2.5 0 0 1 1702,608.0669 L1702,888.55 A2.5,2.5 0 0 1 1699.5,891.05 L805.5,891.05 A2.5,2.5 0 0 1 803,888.55 L803,585.77 A2.5,2.5 0 0 1 805.5,583.27 " fill="none" style="stroke:#000000;stroke-width:1.5;"/><line style="stroke:#000000;stroke-width:1.5;" x1="803" x2="960.4434" y1="605.5669" y2="605.5669"/><text fill="#000000" font-family="sans-serif" font-size="14" font-weight="bold" lengthAdjust="spacing" textLength="144.4434" x="807" y="598.2651">Data Access Layer</text></g><!--cluster Domain Layer--><g id="cluster_Domain Layer"><path d="M8.5,550.67 L118.3076,550.67 A3.75,3.75 0 0 1 120.8076,553.17 L127.8076,572.9669 L776.5,572.9669 A2.5,2.5 0 0 1 779,575.4669 L779,744.96 A2.5,2.5 0 0 1 776.5,747.46 L8.5,747.46 A2.5,2.5 0 0 1 6,744.96 L6,553.17 A2.5,2.5 0 0 1 8.5,550.67 " fill="none" style="stroke:#000000;stroke-width:1.5;"/><line style="stroke:#000000;stroke-width:1.5;" x1="6" x2="127.8076" y1="572.9669" y2="572.9669"/><text fill="#000000" font-family="sans-serif" font-size="14" font-weight="bold" lengthAdjust="spacing" textLength="108.8076" x="10" y="565.6651">Domain Layer</text></g><!--class IMovieService--><g id="elem_IMovieService"><rect codeLine="2" fill="#F1F1F1" height="80.5938" id="IMovieService" rx="2.5" ry="2.5" style="stroke:#181818;stroke-width:0.5;" width="371.8984" x="1053.05" y="41"/><ellipse cx="1186.0979" cy="57" fill="#B4A7E5" rx="11" ry="11" style="stroke:#181818;stroke-width:1.0;"/><path d="M1182.0197,52.7656 L1182.0197,50.6094 L1189.4104,50.6094 L1189.4104,52.7656 L1186.9416,52.7656 L1186.9416,60.8438 L1189.4104,60.8438 L1189.4104,63 L1182.0197,63 L1182.0197,60.8438 L1184.4885,60.8438 L1184.4885,52.7656 L1182.0197,52.7656 Z " fill="#000000"/><text fill="#000000" font-family="sans-serif" font-size="14" font-style="italic" lengthAdjust="spacing" textLength="97.3027" x="1206.5979" y="61.8467">IMovieService</text><line style="stroke:#181818;stroke-width:0.5;" x1="1054.05" x2="1423.9484" y1="73" y2="73"/><line style="stroke:#181818;stroke-width:0.5;" x1="1054.05" x2="1423.9484" y1="81" y2="81"/><ellipse cx="1064.05" cy="94.6484" fill="#84BE84" rx="3" ry="3" style="stroke:#038048;stroke-width:1.0;"/><text fill="#000000" font-family="sans-serif" font-size="14" lengthAdjust="spacing" textLength="272.1523" x="1073.05" y="97.9951">getMovieDetails(movieId: Guid): Movie</text><ellipse cx="1064.05" cy="110.9453" fill="#84BE84" rx="3" ry="3" style="stroke:#038048;stroke-width:1.0;"/><text fill="#000000" font-family="sans-serif" font-size="14" lengthAdjust="spacing" textLength="345.8984" x="1073.05" y="114.292">getMoviesForDate(date: DateTime): List&lt;Movie&gt;</text></g><!--class IReservationService--><g id="elem_IReservationService"><rect codeLine="7" fill="#F1F1F1" height="80.5938" id="IReservationService" rx="2.5" ry="2.5" style="stroke:#181818;stroke-width:0.5;" width="464.0605" x="1006.97" y="214.89"/><ellipse cx="1164.9724" cy="230.89" fill="#B4A7E5" rx="11" ry="11" style="stroke:#181818;stroke-width:1.0;"/><path d="M1160.8943,226.6556 L1160.8943,224.4994 L1168.2849,224.4994 L1168.2849,226.6556 L1165.8162,226.6556 L1165.8162,234.7338 L1168.2849,234.7338 L1168.2849,236.89 L1160.8943,236.89 L1160.8943,234.7338 L1163.3631,234.7338 L1163.3631,226.6556 L1160.8943,226.6556 Z " fill="#000000"/><text fill="#000000" font-family="sans-serif" font-size="14" font-style="italic" lengthAdjust="spacing" textLength="139.5557" x="1185.4724" y="235.7367">IReservationService</text><line style="stroke:#181818;stroke-width:0.5;" x1="1007.97" x2="1470.0305" y1="246.89" y2="246.89"/><line style="stroke:#181818;stroke-width:0.5;" x1="1007.97" x2="1470.0305" y1="254.89" y2="254.89"/><ellipse cx="1017.97" cy="268.5384" fill="#84BE84" rx="3" ry="3" style="stroke:#038048;stroke-width:1.0;"/><text fill="#000000" font-family="sans-serif" font-size="14" lengthAdjust="spacing" textLength="339.1172" x="1026.97" y="271.8851">reserveSeats(movieId: Guid, seats: int): boolean</text><ellipse cx="1017.97" cy="284.8353" fill="#84BE84" rx="3" ry="3" style="stroke:#038048;stroke-width:1.0;"/><text fill="#000000" font-family="sans-serif" font-size="14" lengthAdjust="spacing" textLength="438.0605" x="1026.97" y="288.182">checkAvailability(movieId: Guid, requestedSeats: int): boolean</text></g><!--class MovieService--><g id="elem_MovieService"><rect codeLine="12" fill="#F1F1F1" height="113.1875" id="MovieService" rx="2.5" ry="2.5" style="stroke:#181818;stroke-width:0.5;" width="371.8984" x="600.05" y="198.6"/><ellipse cx="735.1623" cy="214.6" fill="#ADD1B2" rx="11" ry="11" style="stroke:#181818;stroke-width:1.0;"/><path d="M738.1311,220.2406 Q737.5529,220.5375 736.9123,220.6781 Q736.2717,220.8344 735.5686,220.8344 Q733.0686,220.8344 731.7404,219.1937 Q730.4279,217.5375 730.4279,214.4125 Q730.4279,211.2875 731.7404,209.6312 Q733.0686,207.975 735.5686,207.975 Q736.2717,207.975 736.9123,208.1312 Q737.5686,208.2875 738.1311,208.5844 L738.1311,211.3031 Q737.5061,210.725 736.9123,210.4594 Q736.3186,210.1781 735.6936,210.1781 Q734.3498,210.1781 733.6623,211.2562 Q732.9748,212.3187 732.9748,214.4125 Q732.9748,216.5062 733.6623,217.5844 Q734.3498,218.6469 735.6936,218.6469 Q736.3186,218.6469 736.9123,218.3812 Q737.5061,218.1 738.1311,217.5219 L738.1311,220.2406 Z " fill="#000000"/><text fill="#000000" font-family="sans-serif" font-size="14" lengthAdjust="spacing" textLength="93.1738" x="755.6623" y="219.4467">MovieService</text><line style="stroke:#181818;stroke-width:0.5;" x1="601.05" x2="970.9484" y1="230.6" y2="230.6"/><rect fill="none" height="6" style="stroke:#C82930;stroke-width:1.0;" width="6" x="608.05" y="241.2484"/><text fill="#000000" font-family="sans-serif" font-size="14" lengthAdjust="spacing" textLength="247.8643" x="620.05" y="247.5951">movieRepository: IMovieRepository</text><rect fill="none" height="6" style="stroke:#C82930;stroke-width:1.0;" width="6" x="608.05" y="257.5453"/><text fill="#000000" font-family="sans-serif" font-size="14" lengthAdjust="spacing" textLength="280.1777" x="620.05" y="263.892">reservationService: IReservationService</text><line style="stroke:#181818;stroke-width:0.5;" x1="601.05" x2="970.9484" y1="271.1937" y2="271.1937"/><ellipse cx="611.05" cy="284.8422" fill="#84BE84" rx="3" ry="3" style="stroke:#038048;stroke-width:1.0;"/><text fill="#000000" font-family="sans-serif" font-size="14" lengthAdjust="spacing" textLength="272.1523" x="620.05" y="288.1889">getMovieDetails(movieId: Guid): Movie</text><ellipse cx="611.05" cy="301.1391" fill="#84BE84" rx="3" ry="3" style="stroke:#038048;stroke-width:1.0;"/><text fill="#000000" font-family="sans-serif" font-size="14" lengthAdjust="spacing" textLength="345.8984" x="620.05" y="304.4857">getMoviesForDate(date: DateTime): List&lt;Movie&gt;</text></g><!--class ReservationService--><g id="elem_ReservationService"><rect codeLine="19" fill="#F1F1F1" height="96.8906" id="ReservationService" rx="2.5" ry="2.5" style="stroke:#181818;stroke-width:0.5;" width="464.0605" x="838.97" y="388.78"/><ellipse cx="999.0369" cy="404.78" fill="#ADD1B2" rx="11" ry="11" style="stroke:#181818;stroke-width:1.0;"/><path d="M1002.0056,410.4206 Q1001.4275,410.7175 1000.7869,410.8581 Q1000.1463,411.0144 999.4431,411.0144 Q996.9431,411.0144 995.615,409.3738 Q994.3025,407.7175 994.3025,404.5925 Q994.3025,401.4675 995.615,399.8113 Q996.9431,398.155 999.4431,398.155 Q1000.1463,398.155 1000.7869,398.3113 Q1001.4431,398.4675 1002.0056,398.7644 L1002.0056,401.4831 Q1001.3806,400.905 1000.7869,400.6394 Q1000.1931,400.3581 999.5681,400.3581 Q998.2244,400.3581 997.5369,401.4363 Q996.8494,402.4988 996.8494,404.5925 Q996.8494,406.6863 997.5369,407.7644 Q998.2244,408.8269 999.5681,408.8269 Q1000.1931,408.8269 1000.7869,408.5613 Q1001.3806,408.28 1002.0056,407.7019 L1002.0056,410.4206 Z " fill="#000000"/><text fill="#000000" font-family="sans-serif" font-size="14" lengthAdjust="spacing" textLength="135.4268" x="1019.5369" y="409.6267">ReservationService</text><line style="stroke:#181818;stroke-width:0.5;" x1="839.97" x2="1302.0305" y1="420.78" y2="420.78"/><rect fill="none" height="6" style="stroke:#C82930;stroke-width:1.0;" width="6" x="846.97" y="431.4284"/><text fill="#000000" font-family="sans-serif" font-size="14" lengthAdjust="spacing" textLength="326.8398" x="858.97" y="437.7751">reservationRepository: IReservationRepository</text><line style="stroke:#181818;stroke-width:0.5;" x1="839.97" x2="1302.0305" y1="445.0769" y2="445.0769"/><ellipse cx="849.97" cy="458.7253" fill="#84BE84" rx="3" ry="3" style="stroke:#038048;stroke-width:1.0;"/><text fill="#000000" font-family="sans-serif" font-size="14" lengthAdjust="spacing" textLength="339.1172" x="858.97" y="462.072">reserveSeats(movieId: Guid, seats: int): boolean</text><ellipse cx="849.97" cy="475.0222" fill="#84BE84" rx="3" ry="3" style="stroke:#038048;stroke-width:1.0;"/><text fill="#000000" font-family="sans-serif" font-size="14" lengthAdjust="spacing" textLength="438.0605" x="858.97" y="478.3689">checkAvailability(movieId: Guid, requestedSeats: int): boolean</text></g><!--class IMovieRepository--><g id="elem_IMovieRepository"><rect codeLine="27" fill="#F1F1F1" height="80.5938" id="IMovieRepository" rx="2.5" ry="2.5" style="stroke:#181818;stroke-width:0.5;" width="284.1113" x="818.94" y="618.27"/><ellipse cx="896.4288" cy="634.27" fill="#B4A7E5" rx="11" ry="11" style="stroke:#181818;stroke-width:1.0;"/><path d="M892.3506,630.0356 L892.3506,627.8794 L899.7413,627.8794 L899.7413,630.0356 L897.2725,630.0356 L897.2725,638.1138 L899.7413,638.1138 L899.7413,640.27 L892.3506,640.27 L892.3506,638.1138 L894.8194,638.1138 L894.8194,630.0356 L892.3506,630.0356 Z " fill="#000000"/><text fill="#000000" font-family="sans-serif" font-size="14" font-style="italic" lengthAdjust="spacing" textLength="120.6338" x="916.9288" y="639.1167">IMovieRepository</text><line style="stroke:#181818;stroke-width:0.5;" x1="819.94" x2="1102.0513" y1="650.27" y2="650.27"/><line style="stroke:#181818;stroke-width:0.5;" x1="819.94" x2="1102.0513" y1="658.27" y2="658.27"/><ellipse cx="829.94" cy="671.9184" fill="#84BE84" rx="3" ry="3" style="stroke:#038048;stroke-width:1.0;"/><text fill="#000000" font-family="sans-serif" font-size="14" lengthAdjust="spacing" textLength="184.7617" x="838.94" y="675.2651">findMovies(): List&lt;Movie&gt;</text><ellipse cx="829.94" cy="688.2153" fill="#84BE84" rx="3" ry="3" style="stroke:#038048;stroke-width:1.0;"/><text fill="#000000" font-family="sans-serif" font-size="14" lengthAdjust="spacing" textLength="258.1113" x="838.94" y="691.562">findMovieById(movieId: Guid): Movie</text></g><!--class IReservationRepository--><g id="elem_IReservationRepository"><rect codeLine="32" fill="#F1F1F1" height="80.5938" id="IReservationRepository" rx="2.5" ry="2.5" style="stroke:#181818;stroke-width:0.5;" width="547.7461" x="1138.13" y="618.27"/><ellipse cx="1326.3097" cy="634.27" fill="#B4A7E5" rx="11" ry="11" style="stroke:#181818;stroke-width:1.0;"/><path d="M1322.2316,630.0356 L1322.2316,627.8794 L1329.6222,627.8794 L1329.6222,630.0356 L1327.1534,630.0356 L1327.1534,638.1138 L1329.6222,638.1138 L1329.6222,640.27 L1322.2316,640.27 L1322.2316,638.1138 L1324.7003,638.1138 L1324.7003,630.0356 L1322.2316,630.0356 Z " fill="#000000"/><text fill="#000000" font-family="sans-serif" font-size="14" font-style="italic" lengthAdjust="spacing" textLength="162.8867" x="1346.8097" y="639.1167">IReservationRepository</text><line style="stroke:#181818;stroke-width:0.5;" x1="1139.13" x2="1684.8761" y1="650.27" y2="650.27"/><line style="stroke:#181818;stroke-width:0.5;" x1="1139.13" x2="1684.8761" y1="658.27" y2="658.27"/><ellipse cx="1149.13" cy="671.9184" fill="#84BE84" rx="3" ry="3" style="stroke:#038048;stroke-width:1.0;"/><text fill="#000000" font-family="sans-serif" font-size="14" lengthAdjust="spacing" textLength="338.7412" x="1158.13" y="675.2651">saveReservation(reservation: Reservation): void</text><ellipse cx="1149.13" cy="688.2153" fill="#84BE84" rx="3" ry="3" style="stroke:#038048;stroke-width:1.0;"/><text fill="#000000" font-family="sans-serif" font-size="14" lengthAdjust="spacing" textLength="521.7461" x="1158.13" y="691.562">checkReservationAvailability(movieId: Guid, requestedSeats: int): boolean</text></g><!--class MovieRepository--><g id="elem_MovieRepository"><rect codeLine="37" fill="#F1F1F1" height="80.5938" id="MovieRepository" rx="2.5" ry="2.5" style="stroke:#181818;stroke-width:0.5;" width="284.1113" x="818.94" y="794.46"/><ellipse cx="898.4932" cy="810.46" fill="#ADD1B2" rx="11" ry="11" style="stroke:#181818;stroke-width:1.0;"/><path d="M901.462,816.1006 Q900.8838,816.3975 900.2432,816.5381 Q899.6026,816.6944 898.8995,816.6944 Q896.3995,816.6944 895.0713,815.0537 Q893.7588,813.3975 893.7588,810.2725 Q893.7588,807.1475 895.0713,805.4912 Q896.3995,803.835 898.8995,803.835 Q899.6026,803.835 900.2432,803.9912 Q900.8995,804.1475 901.462,804.4444 L901.462,807.1631 Q900.837,806.585 900.2432,806.3194 Q899.6495,806.0381 899.0245,806.0381 Q897.6807,806.0381 896.9932,807.1162 Q896.3057,808.1787 896.3057,810.2725 Q896.3057,812.3662 896.9932,813.4444 Q897.6807,814.5069 899.0245,814.5069 Q899.6495,814.5069 900.2432,814.2412 Q900.837,813.96 901.462,813.3819 L901.462,816.1006 Z " fill="#000000"/><text fill="#000000" font-family="sans-serif" font-size="14" lengthAdjust="spacing" textLength="116.5049" x="918.9932" y="815.3067">MovieRepository</text><line style="stroke:#181818;stroke-width:0.5;" x1="819.94" x2="1102.0513" y1="826.46" y2="826.46"/><line style="stroke:#181818;stroke-width:0.5;" x1="819.94" x2="1102.0513" y1="834.46" y2="834.46"/><ellipse cx="829.94" cy="848.1084" fill="#84BE84" rx="3" ry="3" style="stroke:#038048;stroke-width:1.0;"/><text fill="#000000" font-family="sans-serif" font-size="14" lengthAdjust="spacing" textLength="184.7617" x="838.94" y="851.4551">findMovies(): List&lt;Movie&gt;</text><ellipse cx="829.94" cy="864.4053" fill="#84BE84" rx="3" ry="3" style="stroke:#038048;stroke-width:1.0;"/><text fill="#000000" font-family="sans-serif" font-size="14" lengthAdjust="spacing" textLength="258.1113" x="838.94" y="867.752">findMovieById(movieId: Guid): Movie</text></g><!--class ReservationRepository--><g id="elem_ReservationRepository"><rect codeLine="42" fill="#F1F1F1" height="80.5938" id="ReservationRepository" rx="2.5" ry="2.5" style="stroke:#181818;stroke-width:0.5;" width="547.7461" x="1138.13" y="794.46"/><ellipse cx="1328.3741" cy="810.46" fill="#ADD1B2" rx="11" ry="11" style="stroke:#181818;stroke-width:1.0;"/><path d="M1331.3429,816.1006 Q1330.7648,816.3975 1330.1241,816.5381 Q1329.4835,816.6944 1328.7804,816.6944 Q1326.2804,816.6944 1324.9523,815.0537 Q1323.6398,813.3975 1323.6398,810.2725 Q1323.6398,807.1475 1324.9523,805.4912 Q1326.2804,803.835 1328.7804,803.835 Q1329.4835,803.835 1330.1241,803.9912 Q1330.7804,804.1475 1331.3429,804.4444 L1331.3429,807.1631 Q1330.7179,806.585 1330.1241,806.3194 Q1329.5304,806.0381 1328.9054,806.0381 Q1327.5616,806.0381 1326.8741,807.1162 Q1326.1866,808.1787 1326.1866,810.2725 Q1326.1866,812.3662 1326.8741,813.4444 Q1327.5616,814.5069 1328.9054,814.5069 Q1329.5304,814.5069 1330.1241,814.2412 Q1330.7179,813.96 1331.3429,813.3819 L1331.3429,816.1006 Z " fill="#000000"/><text fill="#000000" font-family="sans-serif" font-size="14" lengthAdjust="spacing" textLength="158.7578" x="1348.8741" y="815.3067">ReservationRepository</text><line style="stroke:#181818;stroke-width:0.5;" x1="1139.13" x2="1684.8761" y1="826.46" y2="826.46"/><line style="stroke:#181818;stroke-width:0.5;" x1="1139.13" x2="1684.8761" y1="834.46" y2="834.46"/><ellipse cx="1149.13" cy="848.1084" fill="#84BE84" rx="3" ry="3" style="stroke:#038048;stroke-width:1.0;"/><text fill="#000000" font-family="sans-serif" font-size="14" lengthAdjust="spacing" textLength="338.7412" x="1158.13" y="851.4551">saveReservation(reservation: Reservation): void</text><ellipse cx="1149.13" cy="864.4053" fill="#84BE84" rx="3" ry="3" style="stroke:#038048;stroke-width:1.0;"/><text fill="#000000" font-family="sans-serif" font-size="14" lengthAdjust="spacing" textLength="521.7461" x="1158.13" y="867.752">checkReservationAvailability(movieId: Guid, requestedSeats: int): boolean</text></g><!--class Movie--><g id="elem_Movie"><rect codeLine="49" fill="#F1F1F1" height="145.7813" id="Movie" rx="2.5" ry="2.5" style="stroke:#181818;stroke-width:0.5;" width="119.2012" x="22.4" y="585.67"/><ellipse cx="57.9958" cy="601.67" fill="#ADD1B2" rx="11" ry="11" style="stroke:#181818;stroke-width:1.0;"/><path d="M60.9646,607.3106 Q60.3865,607.6075 59.7458,607.7481 Q59.1052,607.9044 58.4021,607.9044 Q55.9021,607.9044 54.574,606.2638 Q53.2615,604.6075 53.2615,601.4825 Q53.2615,598.3575 54.574,596.7013 Q55.9021,595.045 58.4021,595.045 Q59.1052,595.045 59.7458,595.2013 Q60.4021,595.3575 60.9646,595.6544 L60.9646,598.3731 Q60.3396,597.795 59.7458,597.5294 Q59.1521,597.2481 58.5271,597.2481 Q57.1833,597.2481 56.4958,598.3263 Q55.8083,599.3888 55.8083,601.4825 Q55.8083,603.5763 56.4958,604.6544 Q57.1833,605.7169 58.5271,605.7169 Q59.1521,605.7169 59.7458,605.4513 Q60.3396,605.17 60.9646,604.5919 L60.9646,607.3106 Z " fill="#000000"/><text fill="#000000" font-family="sans-serif" font-size="14" lengthAdjust="spacing" textLength="41.4326" x="76.5727" y="606.5167">Movie</text><line style="stroke:#181818;stroke-width:0.5;" x1="23.4" x2="140.6012" y1="617.67" y2="617.67"/><rect fill="none" height="6" style="stroke:#C82930;stroke-width:1.0;" width="6" x="30.4" y="628.3184"/><text fill="#000000" font-family="sans-serif" font-size="14" lengthAdjust="spacing" textLength="54.6807" x="42.4" y="634.6651">Id: Guid</text><rect fill="none" height="6" style="stroke:#C82930;stroke-width:1.0;" width="6" x="30.4" y="644.6153"/><text fill="#000000" font-family="sans-serif" font-size="14" lengthAdjust="spacing" textLength="79.7891" x="42.4" y="650.962">Title: string</text><rect fill="none" height="6" style="stroke:#C82930;stroke-width:1.0;" width="6" x="30.4" y="660.9122"/><text fill="#000000" font-family="sans-serif" font-size="14" lengthAdjust="spacing" textLength="93.2012" x="42.4" y="667.2589">Image: string</text><rect fill="none" height="6" style="stroke:#C82930;stroke-width:1.0;" width="6" x="30.4" y="677.2091"/><text fill="#000000" font-family="sans-serif" font-size="14" lengthAdjust="spacing" textLength="88.2246" x="42.4" y="683.5557">Duration: int</text><rect fill="none" height="6" style="stroke:#C82930;stroke-width:1.0;" width="6" x="30.4" y="693.5059"/><text fill="#000000" font-family="sans-serif" font-size="14" lengthAdjust="spacing" textLength="92.0596" x="42.4" y="699.8526">Genre: string</text><rect fill="none" height="6" style="stroke:#C82930;stroke-width:1.0;" width="6" x="30.4" y="709.8028"/><text fill="#000000" font-family="sans-serif" font-size="14" lengthAdjust="spacing" textLength="86.0645" x="42.4" y="716.1495">Rating: float</text><line style="stroke:#181818;stroke-width:0.5;" x1="23.4" x2="140.6012" y1="723.4513" y2="723.4513"/></g><!--class Reservation--><g id="elem_Reservation"><rect codeLine="58" fill="#F1F1F1" height="145.7813" id="Reservation" rx="2.5" ry="2.5" style="stroke:#181818;stroke-width:0.5;" width="220.4688" x="176.77" y="585.67"/><ellipse cx="240.9116" cy="601.67" fill="#ADD1B2" rx="11" ry="11" style="stroke:#181818;stroke-width:1.0;"/><path d="M243.8804,607.3106 Q243.3022,607.6075 242.6616,607.7481 Q242.021,607.9044 241.3179,607.9044 Q238.8179,607.9044 237.4897,606.2638 Q236.1772,604.6075 236.1772,601.4825 Q236.1772,598.3575 237.4897,596.7013 Q238.8179,595.045 241.3179,595.045 Q242.021,595.045 242.6616,595.2013 Q243.3179,595.3575 243.8804,595.6544 L243.8804,598.3731 Q243.2554,597.795 242.6616,597.5294 Q242.0679,597.2481 241.4429,597.2481 Q240.0991,597.2481 239.4116,598.3263 Q238.7241,599.3888 238.7241,601.4825 Q238.7241,603.5763 239.4116,604.6544 Q240.0991,605.7169 241.4429,605.7169 Q242.0679,605.7169 242.6616,605.4513 Q243.2554,605.17 243.8804,604.5919 L243.8804,607.3106 Z " fill="#000000"/><text fill="#000000" font-family="sans-serif" font-size="14" lengthAdjust="spacing" textLength="83.6855" x="261.4116" y="606.5167">Reservation</text><line style="stroke:#181818;stroke-width:0.5;" x1="177.77" x2="396.2388" y1="617.67" y2="617.67"/><rect fill="none" height="6" style="stroke:#C82930;stroke-width:1.0;" width="6" x="184.77" y="628.3184"/><text fill="#000000" font-family="sans-serif" font-size="14" lengthAdjust="spacing" textLength="54.6807" x="196.77" y="634.6651">Id: Guid</text><rect fill="none" height="6" style="stroke:#C82930;stroke-width:1.0;" width="6" x="184.77" y="644.6153"/><text fill="#000000" font-family="sans-serif" font-size="14" lengthAdjust="spacing" textLength="96.1133" x="196.77" y="650.962">MovieId: Guid</text><rect fill="none" height="6" style="stroke:#C82930;stroke-width:1.0;" width="6" x="184.77" y="660.9122"/><text fill="#000000" font-family="sans-serif" font-size="14" lengthAdjust="spacing" textLength="91.5742" x="196.77" y="667.2589">Time: double</text><rect fill="none" height="6" style="stroke:#C82930;stroke-width:1.0;" width="6" x="184.77" y="677.2091"/><text fill="#000000" font-family="sans-serif" font-size="14" lengthAdjust="spacing" textLength="111.1729" x="196.77" y="683.5557">MaxOfSeats: int</text><rect fill="none" height="6" style="stroke:#C82930;stroke-width:1.0;" width="6" x="184.77" y="693.5059"/><text fill="#000000" font-family="sans-serif" font-size="14" lengthAdjust="spacing" textLength="194.4688" x="196.77" y="699.8526">ReservationDate: DateTime</text><rect fill="none" height="6" style="stroke:#C82930;stroke-width:1.0;" width="6" x="184.77" y="709.8028"/><text fill="#000000" font-family="sans-serif" font-size="14" lengthAdjust="spacing" textLength="145.1133" x="196.77" y="716.1495">Clients: List&lt;string&gt;</text><line style="stroke:#181818;stroke-width:0.5;" x1="177.77" x2="396.2388" y1="723.4513" y2="723.4513"/></g><!--class ReservationValidator--><g id="elem_ReservationValidator"><rect codeLine="67" fill="#F1F1F1" height="64.2969" id="ReservationValidator" rx="2.5" ry="2.5" style="stroke:#181818;stroke-width:0.5;" width="330.8418" x="432.58" y="626.42"/><ellipse cx="520.3022" cy="642.42" fill="#ADD1B2" rx="11" ry="11" style="stroke:#181818;stroke-width:1.0;"/><path d="M523.2709,648.0606 Q522.6928,648.3575 522.0522,648.4981 Q521.4115,648.6544 520.7084,648.6544 Q518.2084,648.6544 516.8803,647.0138 Q515.5678,645.3575 515.5678,642.2325 Q515.5678,639.1075 516.8803,637.4513 Q518.2084,635.795 520.7084,635.795 Q521.4115,635.795 522.0522,635.9513 Q522.7084,636.1075 523.2709,636.4044 L523.2709,639.1231 Q522.6459,638.545 522.0522,638.2794 Q521.4584,637.9981 520.8334,637.9981 Q519.4897,637.9981 518.8022,639.0763 Q518.1147,640.1388 518.1147,642.2325 Q518.1147,644.3263 518.8022,645.4044 Q519.4897,646.4669 520.8334,646.4669 Q521.4584,646.4669 522.0522,646.2013 Q522.6459,645.92 523.2709,645.3419 L523.2709,648.0606 Z " fill="#000000"/><text fill="#000000" font-family="sans-serif" font-size="14" lengthAdjust="spacing" textLength="146.8975" x="540.8022" y="647.2667">ReservationValidator</text><line style="stroke:#181818;stroke-width:0.5;" x1="433.58" x2="762.4218" y1="658.42" y2="658.42"/><line style="stroke:#181818;stroke-width:0.5;" x1="433.58" x2="762.4218" y1="666.42" y2="666.42"/><ellipse cx="443.58" cy="680.0684" fill="#84BE84" rx="3" ry="3" style="stroke:#038048;stroke-width:1.0;"/><text fill="#000000" font-family="sans-serif" font-size="14" lengthAdjust="spacing" textLength="304.8418" x="452.58" y="683.4151">validate(reservation: Reservation): boolean</text></g><!--reverse link IMovieService to MovieService--><g id="link_IMovieService_MovieService"><path d="M1117.391,128.4464 C1057.811,151.0564 999.07,173.34 933.56,198.2 " fill="none" id="IMovieService-backto-MovieService" style="stroke:#181818;stroke-width:1.0;stroke-dasharray:7.0,7.0;"/><polygon fill="none" points="1134.22,122.06,1115.2622,122.8368,1119.5199,134.0561,1134.22,122.06" style="stroke:#181818;stroke-width:1.0;"/></g><!--reverse link IReservationService to ReservationService--><g id="link_IReservationService_ReservationService"><path d="M1189.8503,308.8609 C1164.3503,336.1909 1142.57,359.54 1115.55,388.49 " fill="none" id="IReservationService-backto-ReservationService" style="stroke:#181818;stroke-width:1.0;stroke-dasharray:7.0,7.0;"/><polygon fill="none" points="1202.13,295.7,1185.4634,304.7677,1194.2373,312.9541,1202.13,295.7" style="stroke:#181818;stroke-width:1.0;"/></g><!--reverse link IMovieRepository to MovieRepository--><g id="link_IMovieRepository_MovieRepository"><path d="M961,717.09 C961,745.5 961,765.64 961,794.08 " fill="none" id="IMovieRepository-backto-MovieRepository" style="stroke:#181818;stroke-width:1.0;stroke-dasharray:7.0,7.0;"/><polygon fill="none" points="961,699.09,955,717.09,967,717.09,961,699.09" style="stroke:#181818;stroke-width:1.0;"/></g><!--reverse link IReservationRepository to ReservationRepository--><g id="link_IReservationRepository_ReservationRepository"><path d="M1412,717.09 C1412,745.5 1412,765.64 1412,794.08 " fill="none" id="IReservationRepository-backto-ReservationRepository" style="stroke:#181818;stroke-width:1.0;stroke-dasharray:7.0,7.0;"/><polygon fill="none" points="1412,699.09,1406,717.09,1418,717.09,1412,699.09" style="stroke:#181818;stroke-width:1.0;"/></g><!--link IMovieService to IMovieRepository--><g id="link_IMovieService_IMovieRepository"><path codeLine="72" d="M1374.34,122.04 C1395.6,130.5 1416.86,140.34 1436,151.6 C1595.2,245.27 1773.46,375.03 1647,509.67 C1606.91,552.36 1176.15,523 1121,542.67 C1076.07,558.71 1037.1204,587.4346 1006.8504,613.8546 " fill="none" id="IMovieService-to-IMovieRepository" style="stroke:#181818;stroke-width:1.0;"/><polygon fill="#181818" points="1002.33,617.8,1011.7408,614.8954,1006.097,614.5121,1006.4803,608.8683,1002.33,617.8" style="stroke:#181818;stroke-width:1.0;"/><text fill="#000000" font-family="sans-serif" font-size="13" lengthAdjust="spacing" textLength="139.0137" x="1677" y="354.8469">Retrieves movie data</text></g><!--link IMovieService to IReservationService--><g id="link_IMovieService_IReservationService"><path codeLine="73" d="M1239,121.74 C1239,149.59 1239,180.76 1239,208.64 " fill="none" id="IMovieService-to-IReservationService" style="stroke:#181818;stroke-width:1.0;"/><polygon fill="#181818" points="1239,214.64,1243,205.64,1239,209.64,1235,205.64,1239,214.64" style="stroke:#181818;stroke-width:1.0;"/><text fill="#000000" font-family="sans-serif" font-size="13" lengthAdjust="spacing" textLength="187.6494" x="1240" y="164.6669">Checks availability for movie</text></g><!--link IReservationService to IReservationRepository--><g id="link_IReservationService_IReservationRepository"><path codeLine="74" d="M1266.78,295.76 C1283.97,321.44 1305.6,356.1 1321,388.78 C1357.94,467.23 1385.5145,559.0633 1400.1345,612.4233 " fill="none" id="IReservationService-to-IReservationRepository" style="stroke:#181818;stroke-width:1.0;"/><polygon fill="#181818" points="1401.72,618.21,1403.1996,608.4729,1400.3988,613.3877,1395.4839,610.5869,1401.72,618.21" style="stroke:#181818;stroke-width:1.0;"/><text fill="#000000" font-family="sans-serif" font-size="13" lengthAdjust="spacing" textLength="269.585" x="1369" y="441.7969">Persists or checks reservation availability</text></g><!--link MovieService to IMovieRepository--><g id="link_MovieService_IMovieRepository"><path codeLine="75" d="M780.3,312.02 C776.86,370.89 778.87,464.65 816,534.67 C833.93,568.49 860.5141,593.3896 889.5541,614.3396 " fill="none" id="MovieService-to-IMovieRepository" style="stroke:#181818;stroke-width:1.0;"/><polygon fill="#181818" points="894.42,617.85,889.4614,609.3405,890.3651,614.9247,884.7809,615.8284,894.42,617.85" style="stroke:#181818;stroke-width:1.0;"/></g><!--link MovieService to ReservationValidator--><g id="link_MovieService_ReservationValidator"><path codeLine="76" d="M759.86,312 C719.8,397.52 647.0947,552.7463 615.3147,620.6063 " fill="none" id="MovieService-to-ReservationValidator" style="stroke:#181818;stroke-width:1.0;"/><polygon fill="#181818" points="612.77,626.04,620.2095,619.586,614.8906,621.512,612.9646,616.1931,612.77,626.04" style="stroke:#181818;stroke-width:1.0;"/></g><!--link ReservationService to IReservationRepository--><g id="link_ReservationService_IReservationRepository"><path codeLine="77" d="M1145.41,486.09 C1206.75,525.55 1287.6738,577.5942 1345.2438,614.6242 " fill="none" id="ReservationService-to-IReservationRepository" style="stroke:#181818;stroke-width:1.0;"/><polygon fill="#181818" points="1350.29,617.87,1344.8845,609.6371,1346.0848,615.1651,1340.5567,616.3654,1350.29,617.87" style="stroke:#181818;stroke-width:1.0;"/></g><!--link ReservationService to ReservationValidator--><g id="link_ReservationService_ReservationValidator"><path codeLine="78" d="M937.23,486.16 C893.86,502.81 845.9,522.42 803,542.67 C749.32,568.02 695.5943,598.5986 654.7643,622.9286 " fill="none" id="ReservationService-to-ReservationValidator" style="stroke:#181818;stroke-width:1.0;"/><polygon fill="#181818" points="649.61,626,659.389,624.8291,653.9052,623.4405,655.2939,617.9568,649.61,626" style="stroke:#181818;stroke-width:1.0;"/><text fill="#000000" font-family="sans-serif" font-size="13" lengthAdjust="spacing" textLength="171.7358" x="854" y="530.7369">Validates reservation data</text></g><!--SRC=[rLLjQzim4FwUNo7yAMNB7p2Zq3Qi15estDBl5_kS7PMbJ99DmzX_x_cbMB8Lby4ecp-4-FJStNFFtSb7o9_XW2AvhYqfj5RSmGbD8dwj13-a79eISXIxUzqGFg1fYD_wq_RvT43N7MtH0KcxhjgNNP6AsvgAYrHqXtEu_QhD5Xok2_v9HVltaIfaXpkoxak7kUpSVg-cL3Aqp0CSQHKXPBfJfWfkmkQpiAqnRMDnehtM4a6DdlaFp9-l6Yu3zYJ9dQRk1d_MQ1qM3-VY36Hp2Inb81bLHuaLAcVFQhdfqcLur9QSDgTqG8wM4Mfc6gGnOJw-JttfaHRv0YnsqAyj42EBsV-PndFznxTjOfb0NENvkmirrk6FS4cgwDLVHuGE8TUdNR7GpCNjYMUtqA07MdljIFt6Sfv6Kp6HqGFyxLNowCwswQE4d8tt6LB_Zyh1tEeAI8KZwpN0NzAt9AFbaPpaAy8wG-hW0IiEFJTlQpCKowH6yoqg4q5dZ5M7L9HIWrlinpB7UryVdth5IGjTxoLwO7ZvLexAUMp6TDlWMXmXDvBQGHY6hYzd-Pvy0abyoMhZJqdJ6t5fF6Rj3BylcytbV4TIaMJ8fB11AxgX4Pm6afXlvB9czvjs3Aq0R_f4oUIxO1mduZMD5lBvZiQoLbPmaBmFxXKT94fMxrOuHqIbNlqHpNFeQ6WkQNZ1i99Ew5S0]--></g></svg>